<svg width="42" height="28" viewBox="0 0 42 28" fill="none" xmlns="http://www.w3.org/2000/svg">
<path fill-rule="evenodd" clip-rule="evenodd" d="M36.75 0H5.25C2.3505 0 0 2.35051 0 5.25V22.05C0 24.9495 2.3505 27.3 5.25 27.3H36.75C39.6495 27.3 42 24.9495 42 22.05V5.25C42 2.35051 39.6495 0 36.75 0ZM39.9 5.25V6.3H35.7V2.1H36.75C38.4897 2.1 39.9 3.5103 39.9 5.25ZM35.7 8.4H39.9V12.6H35.7V8.4ZM39.9 18.9V14.7H35.7V18.9H39.9ZM35.7 21H39.9V22.05C39.9 23.7897 38.4897 25.2 36.75 25.2H35.7V21ZM2.1 18.9H6.3V14.7H2.1V18.9ZM2.1 22.05V21H6.3V25.2H5.25C3.5103 25.2 2.1 23.7897 2.1 22.05ZM2.1 8.4V12.6H6.3V8.4H2.1ZM6.3 6.3H2.1V5.25C2.1 3.5103 3.5103 2.1 5.25 2.1H6.3V6.3ZM33.6 2.1H8.4V25.2H33.6V2.1ZM14.7 7.35C14.7 6.53384 15.5904 6.02972 16.2902 6.44963L26.7902 12.7496C27.4699 13.1575 27.4699 14.1425 26.7902 14.5504L16.2902 20.8504C15.5904 21.2703 14.7 20.7662 14.7 19.95V7.35ZM24.2092 13.65L16.8 18.0955V9.2045L24.2092 13.65Z" fill="black"/>
</svg>
