<svg width="39" height="38" viewBox="0 0 39 38" fill="none" xmlns="http://www.w3.org/2000/svg">
<g clip-path="url(#clip0_1_10405)">
<ellipse cx="20.5663" cy="18.0536" rx="7.83483" ry="10.452" fill="white"/>
<path d="M29.8415 27.3763L19.5 37.4097L9.15845 27.3763C7.11312 25.3918 5.72024 22.8635 5.15595 20.1111C4.59165 17.3586 4.88129 14.5056 5.98823 11.9128C7.09516 9.32009 8.96969 7.10402 11.3748 5.54488C13.7798 3.98574 16.6074 3.15355 19.5 3.15355C22.3925 3.15355 25.2201 3.98574 27.6252 5.54488C30.0302 7.10402 31.9048 9.32009 33.0117 11.9128C34.1186 14.5056 34.4083 17.3586 33.844 20.1111C33.2797 22.8635 31.8868 25.3918 29.8415 27.3763ZM19.5 20.496C20.3619 20.496 21.1886 20.1638 21.7981 19.5724C22.4076 18.9811 22.75 18.1791 22.75 17.3428C22.75 16.5065 22.4076 15.7045 21.7981 15.1132C21.1886 14.5218 20.3619 14.1896 19.5 14.1896C18.638 14.1896 17.8114 14.5218 17.2019 15.1132C16.5924 15.7045 16.25 16.5065 16.25 17.3428C16.25 18.1791 16.5924 18.9811 17.2019 19.5724C17.8114 20.1638 18.638 20.496 19.5 20.496Z" fill="#DF423D"/>
</g>
<defs>
<clipPath id="clip0_1_10405">
<rect width="38.3209" height="37.1794" fill="white" transform="scale(1.01772)"/>
</clipPath>
</defs>
</svg>
