<svg width="25" height="25" viewBox="0 0 25 25" fill="none" xmlns="http://www.w3.org/2000/svg">
<path fill-rule="evenodd" clip-rule="evenodd" d="M5.2085 2.08301H19.7918C21.5177 2.08301 22.9168 3.48212 22.9168 5.20801V15.6247C22.9168 17.3506 21.5177 18.7497 19.7918 18.7497H18.7502V21.8747C18.7481 22.2952 18.4933 22.6732 18.1043 22.833C17.9807 22.8913 17.8451 22.9199 17.7085 22.9163C17.4316 22.9179 17.1655 22.8092 16.9689 22.6143L13.1147 18.7497H5.2085C3.48261 18.7497 2.0835 17.3506 2.0835 15.6247V5.20801C2.0835 3.48212 3.48261 2.08301 5.2085 2.08301ZM19.7918 16.6663C20.3671 16.6663 20.8335 16.2 20.8335 15.6247V5.20801C20.8335 4.63271 20.3671 4.16634 19.7918 4.16634H5.2085C4.6332 4.16634 4.16683 4.63271 4.16683 5.20801V15.6247C4.16683 16.2 4.6332 16.6663 5.2085 16.6663H13.5418C13.8187 16.6647 14.0848 16.7734 14.2814 16.9684L16.6668 19.3643V17.708C16.6668 17.1327 17.1332 16.6663 17.7085 16.6663H19.7918Z" fill="#92B2DD"/>
</svg>
