<svg width="24" height="24" viewBox="0 0 24 24" fill="none" xmlns="http://www.w3.org/2000/svg">
<path fill-rule="evenodd" clip-rule="evenodd" d="M12 22C6.47715 22 2 17.5228 2 12C2 6.47715 6.47715 2 12 2C17.5228 2 22 6.47715 22 12C22 17.5228 17.5228 22 12 22ZM14 8H14.5C15.3284 8 16 8.67157 16 9.5C16 9.77614 15.7761 10 15.5 10C15.2239 10 15 9.77614 15 9.5C15 9.22386 14.7761 9 14.5 9H9.5C9.22386 9 9 9.22386 9 9.5V10.6327C9 10.8815 9.18296 11.0925 9.42929 11.1277L14.7121 11.8824C15.4511 11.9879 16 12.6208 16 13.3673V14.5C16 15.3284 15.3284 16 14.5 16H14V17.5C14 17.7761 13.7761 18 13.5 18C13.2239 18 13 17.7761 13 17.5V16H11V17.5C11 17.7761 10.7761 18 10.5 18C10.2239 18 10 17.7761 10 17.5V16H9.5C8.67157 16 8 15.3284 8 14.5C8 14.2239 8.22386 14 8.5 14C8.77614 14 9 14.2239 9 14.5C9 14.7761 9.22386 15 9.5 15H14.5C14.7761 15 15 14.7761 15 14.5V13.3673C15 13.1185 14.817 12.9075 14.5707 12.8723L9.28787 12.1176C8.54889 12.0121 8 11.3792 8 10.6327V9.5C8 8.67157 8.67157 8 9.5 8H10V6.5C10 6.22386 10.2239 6 10.5 6C10.7761 6 11 6.22386 11 6.5V8H13V6.5C13 6.22386 13.2239 6 13.5 6C13.7761 6 14 6.22386 14 6.5V8ZM21 12C21 16.9706 16.9706 21 12 21C7.02944 21 3 16.9706 3 12C3 7.02944 7.02944 3 12 3C16.9706 3 21 7.02944 21 12Z" fill="#92B2DD"/>
</svg>
