<svg width="22" height="19" viewBox="0 0 22 19" fill="none" xmlns="http://www.w3.org/2000/svg">
<path fill-rule="evenodd" clip-rule="evenodd" d="M10.6775 19C4.78046 19 0 14.7467 0 9.5C0 4.25329 4.78046 0 10.6775 0C16.5745 0 21.3549 4.25329 21.3549 9.5C21.3549 14.7467 16.5745 19 10.6775 19ZM10.6778 17.272C15.5026 17.272 19.4139 13.792 19.4139 9.49929C19.4139 5.20653 15.5026 1.72656 10.6778 1.72656C5.85294 1.72656 1.94166 5.20653 1.94166 9.49929C1.94166 13.792 5.85294 17.272 10.6778 17.272ZM15.5308 8.63459H11.6481V4.31641H9.70676V10.3619H15.5308V8.63459Z" fill="#92B2DD"/>
</svg>
