<svg width="18" height="18" viewBox="0 0 18 18" fill="none" xmlns="http://www.w3.org/2000/svg">
<path d="M1.71755 14.761C1.57556 14.8976 1.4957 15.0835 1.4957 15.2775C1.4957 15.4714 1.57556 15.6574 1.71755 15.794C1.85837 15.9317 2.05007 16.0092 2.25005 16.0092C2.45002 16.0092 2.64172 15.9317 2.78255 15.794L9.00005 9.75581L15.2175 15.794C15.3584 15.9317 15.5501 16.0092 15.75 16.0092C15.95 16.0092 16.1417 15.9317 16.2825 15.794C16.4245 15.6574 16.5044 15.4714 16.5044 15.2775C16.5044 15.0835 16.4245 14.8976 16.2825 14.761L10.0575 8.73005L16.2825 2.69915C16.4728 2.51462 16.5471 2.24565 16.4775 1.99357C16.4078 1.7415 16.2048 1.5446 15.945 1.47706C15.6851 1.40951 15.4078 1.48158 15.2175 1.66611L9.00005 7.70429L2.78255 1.66611C2.48845 1.38085 2.01164 1.38085 1.71755 1.66611C1.42345 1.95138 1.42345 2.41389 1.71755 2.69915L7.94255 8.73005L1.71755 14.761Z" fill="#231F20"/>
</svg>
