<svg width="50" height="39" viewBox="0 0 50 39" fill="none" xmlns="http://www.w3.org/2000/svg">
<path fill-rule="evenodd" clip-rule="evenodd" d="M42.1521 19.5001C42.1521 22.1925 44.3724 24.3751 47.1112 24.3751C48.4806 24.3751 49.5907 25.4664 49.5907 26.8126V31.6876C49.5907 35.7262 46.2603 39.0002 42.1521 39.0002H7.43861C3.33038 39.0002 0 35.7262 0 31.6876V26.8126C0 25.4664 1.11013 24.3751 2.47954 24.3751C5.21836 24.3751 7.43861 22.1925 7.43861 19.5001C7.43861 16.8077 5.21836 14.6251 2.47954 14.6251C1.11013 14.6251 0 13.5338 0 12.1876V7.31253C0 3.27393 3.33038 0 7.43861 0H42.1521C46.2603 0 49.5907 3.27393 49.5907 7.31253V12.1876C49.5907 13.5338 48.4806 14.6251 47.1112 14.6251C44.3724 14.6251 42.1521 16.8077 42.1521 19.5001ZM29.7544 14.6251C31.1238 14.6251 32.234 15.7164 32.234 17.0626V21.9376C32.234 23.2838 31.1238 24.3751 29.7544 24.3751C28.385 24.3751 27.2749 23.2838 27.2749 21.9376V17.0626C27.2749 15.7164 28.385 14.6251 29.7544 14.6251ZM44.6317 10.0669C40.2553 11.1777 37.1964 15.0568 37.193 19.5001C37.1964 23.9434 40.2553 27.8224 44.6317 28.9332V31.6876C44.6317 33.0338 43.5215 34.1251 42.1521 34.1251H32.234V31.6876C32.234 30.3414 31.1238 29.2501 29.7544 29.2501C28.385 29.2501 27.2749 30.3414 27.2749 31.6876V34.1251H7.43861C6.0692 34.1251 4.95907 33.0338 4.95907 31.6876V28.9332C9.32415 27.8117 12.3692 23.9353 12.3692 19.5001C12.3692 15.0648 9.32415 11.1885 4.95907 10.0669V7.31253C4.95907 5.96633 6.0692 4.87502 7.43861 4.87502H27.2749V7.31253C27.2749 8.65873 28.385 9.75004 29.7544 9.75004C31.1238 9.75004 32.234 8.65873 32.234 7.31253V4.87502H42.1521C43.5215 4.87502 44.6317 5.96633 44.6317 7.31253V10.0669Z" fill="#231F20"/>
</svg>
