<svg width="22" height="20" viewBox="0 0 22 20" fill="none" xmlns="http://www.w3.org/2000/svg">
<path d="M7.46718 18.7821V15.7152C7.46716 14.9381 8.17744 14.3067 9.05723 14.3018H12.2876C13.1714 14.3018 13.8877 14.9346 13.8877 15.7152V18.7732C13.8877 19.4473 14.5034 19.9951 15.2665 20H17.4704C18.4997 20.0023 19.4878 19.6428 20.2166 19.0007C20.9453 18.3586 21.3549 17.4868 21.3549 16.5775V7.86585C21.3549 7.13139 20.9864 6.43471 20.3486 5.9635L12.8613 0.674268C11.5525 -0.250877 9.68319 -0.220992 8.41316 0.745384L1.08687 5.9635C0.418939 6.42082 0.0197278 7.11956 0 7.86585V16.5686C0 18.4637 1.73917 20 3.88454 20H6.03815C6.40555 20.0023 6.75882 19.8751 7.01956 19.6464C7.2803 19.4178 7.42694 19.1067 7.42693 18.7821H7.46718Z" fill="#2F80ED"/>
</svg>
