<svg width="18" height="17" viewBox="0 0 18 17" fill="none" xmlns="http://www.w3.org/2000/svg">
<path d="M1.71755 14.3222C1.57556 14.4547 1.4957 14.6351 1.4957 14.8234C1.4957 15.0116 1.57556 15.192 1.71755 15.3245C1.85837 15.4582 2.05007 15.5333 2.25005 15.5333C2.45002 15.5333 2.64172 15.4582 2.78255 15.3245L9.00005 9.46571L15.2175 15.3245C15.3584 15.4582 15.5501 15.5333 15.75 15.5333C15.95 15.5333 16.1417 15.4582 16.2825 15.3245C16.4245 15.192 16.5044 15.0116 16.5044 14.8234C16.5044 14.6351 16.4245 14.4547 16.2825 14.3222L10.0575 8.47042L16.2825 2.61865C16.4728 2.4396 16.5471 2.17863 16.4775 1.93403C16.4078 1.68944 16.2048 1.4984 15.945 1.43286C15.6851 1.36732 15.4078 1.43725 15.2175 1.6163L9.00005 7.47513L2.78255 1.6163C2.48845 1.33951 2.01164 1.33951 1.71755 1.6163C1.42345 1.89309 1.42345 2.34186 1.71755 2.61865L7.94255 8.47042L1.71755 14.3222Z" fill="white"/>
</svg>
