<svg width="43" height="42" viewBox="0 0 43 42" fill="none" xmlns="http://www.w3.org/2000/svg">
<path fill-rule="evenodd" clip-rule="evenodd" d="M29.2222 25.939L38.8972 35.3223C39.2363 35.6492 39.4271 36.0941 39.4271 36.5583C39.4271 37.0225 39.2363 37.4675 38.8972 37.7943C38.5607 38.1239 38.1028 38.3093 37.6251 38.3093C37.1474 38.3093 36.6894 38.1239 36.353 37.7943L26.6959 28.3936C24.192 30.3033 21.0999 31.3396 17.9168 31.3357C10.0007 31.3357 3.58344 25.1004 3.58344 17.4087C3.58344 9.71709 10.0007 3.48178 17.9168 3.48178C25.8328 3.48178 32.2501 9.71709 32.2501 17.4087C32.254 20.5017 31.1876 23.5061 29.2222 25.939ZM17.9168 6.96352C11.9797 6.96352 7.16677 11.64 7.16677 17.4087C7.16677 23.1775 11.9797 27.854 17.9168 27.854C23.8538 27.854 28.6667 23.1775 28.6667 17.4087C28.6667 11.64 23.8538 6.96352 17.9168 6.96352Z" fill="white"/>
</svg>
