<svg width="21" height="21" viewBox="0 0 21 21" fill="none" xmlns="http://www.w3.org/2000/svg">
<path fill-rule="evenodd" clip-rule="evenodd" d="M8.17255 16.5376L18.4363 6.27382C19.1386 5.61942 19.4277 4.63388 19.1901 3.70381C18.9526 2.77374 18.2264 2.04749 17.2963 1.80997C16.3662 1.57245 15.3807 1.86153 14.7263 2.56382L4.4363 12.8538C4.37048 12.9215 4.31452 12.9981 4.27005 13.0813L1.83755 17.9901C1.70453 18.2615 1.72107 18.5825 1.88129 18.8388C2.04152 19.0952 2.32273 19.2507 2.62505 19.2501C2.76941 19.2467 2.9107 19.2076 3.0363 19.1363L7.94505 16.7038C8.0283 16.6593 8.10488 16.6034 8.17255 16.5376ZM18.375 19.2501C18.8583 19.2501 19.25 18.8583 19.25 18.3751C19.25 17.8918 18.8583 17.5001 18.375 17.5001H10.5C10.0168 17.5001 9.62504 17.8918 9.62504 18.3751C9.62504 18.8583 10.0168 19.2501 10.5 19.2501H18.375ZM14.28 7.95382L13.0463 6.72007L5.80129 14.0001L4.58504 16.4501L7.00005 15.1988L14.28 7.95382ZM16.5944 3.49898C16.8343 3.49898 17.0636 3.59743 17.2288 3.77132C17.3993 3.94009 17.4931 4.17147 17.4881 4.41133C17.4831 4.6512 17.3799 4.8785 17.2025 5.04007L15.5138 6.72007L14.28 5.48632L15.96 3.77132C16.1252 3.59743 16.3546 3.49898 16.5944 3.49898Z" fill="#231F20"/>
</svg>
