<svg width="51" height="50" viewBox="0 0 51 50" fill="none" xmlns="http://www.w3.org/2000/svg">
<path d="M7.57026 20.6817C6.74509 20.6817 6.07612 20.0266 6.07612 19.2184V16.2918C6.07612 15.4836 6.74509 14.8284 7.57026 14.8284C8.39542 14.8284 9.06439 15.4836 9.06439 16.2918V19.2184C9.06439 20.0266 8.39542 20.6817 7.57026 20.6817Z" fill="#4568DC"/>
<path d="M35.9588 16.2916V19.2183C35.9588 20.026 35.2894 20.6816 34.4647 20.6816H16.535C15.7102 20.6816 15.0409 20.026 15.0409 19.2183V16.2916C15.0409 13.8712 17.052 11.9016 19.5233 11.9016H31.4764C33.9477 11.9016 35.9588 13.8712 35.9588 16.2916Z" fill="#4568DC"/>
<path d="M35.9588 16.2916V19.2183C35.9588 20.026 35.2895 20.6816 34.4647 20.6816H25.4999V11.9016H31.4764C33.9477 11.9016 35.9588 13.8713 35.9588 16.2916Z" fill="#4568DC"/>
<path d="M35.9588 16.2916V19.2183C35.9588 20.026 35.2895 20.6816 34.4647 20.6816H25.4999V11.9016H31.4764C33.9477 11.9016 35.9588 13.8713 35.9588 16.2916Z" fill="#2339BE"/>
<path d="M50.9999 22.1452V33.8519L25.4999 36.1932L0 33.8519V22.1452C0 19.7249 2.01111 17.7552 4.48241 17.7552H46.5175C48.9888 17.7552 50.9999 19.7249 50.9999 22.1452Z" fill="#4045DC"/>
<path d="M50.9998 22.1452V33.8519L25.4999 36.1932V17.7552H46.5174C48.9887 17.7552 50.9998 19.7249 50.9998 22.1452Z" fill="#4045DC"/>
<path d="M50.9999 33.8515V45.5582C50.9999 47.9785 48.9888 49.9481 46.5175 49.9481H4.48241C2.01111 49.9481 0 47.9785 0 45.5582V33.8515H50.9999Z" fill="#98BAF4"/>
<path d="M50.9998 33.8515V45.5582C50.9998 47.9785 48.9887 49.9481 46.5174 49.9481H25.4999V33.8515H50.9998Z" fill="#4568DC"/>
<path d="M25.5001 23.6084C19.7327 23.6084 15.0411 28.2032 15.0411 33.8517C15.0411 39.4894 19.7237 44.095 25.5001 44.095C31.2794 44.095 35.959 39.4875 35.959 33.8517C35.959 28.2032 31.2675 23.6084 25.5001 23.6084Z" fill="#E9EEF8"/>
<path d="M35.9588 33.8517C35.9588 39.4875 31.2792 44.095 25.4999 44.095V23.6084C31.2672 23.6084 35.9588 28.2032 35.9588 33.8517Z" fill="#98BAF4"/>
<path d="M25.5 29.4615C23.0287 29.4615 21.0176 31.4312 21.0176 33.8515C21.0176 36.266 23.0228 38.2415 25.5 38.2415C27.9753 38.2415 29.9824 36.268 29.9824 33.8515C29.9824 31.4312 27.9713 29.4615 25.5 29.4615Z" fill="#98BAF4"/>
<path d="M29.9823 33.8515C29.9823 36.268 27.9752 38.2415 25.4999 38.2415V29.4615C27.9712 29.4615 29.9823 31.4312 29.9823 33.8515Z" fill="#4045DC"/>
<path d="M7.57026 26.535C8.39545 26.535 9.06439 25.8799 9.06439 25.0717C9.06439 24.2635 8.39545 23.6084 7.57026 23.6084C6.74507 23.6084 6.07612 24.2635 6.07612 25.0717C6.07612 25.8799 6.74507 26.535 7.57026 26.535Z" fill="#97DE3D"/>
<path d="M43.4295 26.535H40.4413C39.6161 26.535 38.9471 25.8799 38.9471 25.0717C38.9471 24.2636 39.6161 23.6084 40.4413 23.6084H43.4295C44.2547 23.6084 44.9237 24.2636 44.9237 25.0717C44.9237 25.8799 44.2547 26.535 43.4295 26.535Z" fill="#59C36A"/>
<path d="M26.9941 1.46333V4.38999C26.9941 5.19775 26.3248 5.85332 25.5 5.85332C24.6752 5.85332 24.0059 5.19775 24.0059 4.38999V1.46333C24.0059 0.655572 24.6752 0 25.5 0C26.3248 0 26.9941 0.655572 26.9941 1.46333Z" fill="#FFE580"/>
<path d="M26.994 1.46333V4.38999C26.994 5.19775 26.3246 5.85332 25.4999 5.85332V0C26.3246 0 26.994 0.655572 26.994 1.46333Z" fill="#FFCC66"/>
<path d="M29.3634 7.92264C28.7799 7.35116 28.7799 6.42467 29.3634 5.8532L31.4764 3.78375C32.0598 3.21227 33.0059 3.21227 33.5894 3.78375C34.1729 4.35523 34.1729 5.28172 33.5894 5.8532L31.4764 7.92264C30.893 8.49412 29.9469 8.49412 29.3634 7.92264Z" fill="#FFCC66"/>
<path d="M19.5233 7.92264L17.4103 5.85319C16.8269 5.28172 16.8269 4.35523 17.4103 3.78375C17.9937 3.21227 18.9397 3.21227 19.5233 3.78375L21.6363 5.85319C22.2197 6.42467 22.2197 7.35116 21.6363 7.92264C21.0529 8.49402 20.1069 8.49421 19.5233 7.92264Z" fill="#FFE580"/>
</svg>
