<svg width="29" height="12" viewBox="0 0 29 12" fill="none" xmlns="http://www.w3.org/2000/svg">
<path d="M3.94524 11.3127C6.68748 11.3127 8.31639 9.1682 8.31639 5.53678C8.31639 4.1694 8.05486 3.01871 7.55424 2.12953C6.82945 0.747204 5.58162 0 4.00502 0C1.65879 0 0 1.5766 0 3.78833C0 5.86555 1.49441 7.37491 3.54922 7.37491C4.812 7.37491 5.83567 6.78462 6.34377 5.76095H6.36618C6.36618 5.76095 6.39607 5.76095 6.40354 5.76095C6.41849 5.76095 6.47079 5.76095 6.47079 5.76095C6.47079 8.22672 5.53678 9.69871 3.96018 9.69871C3.03365 9.69871 2.31633 9.19061 2.06976 8.37616H0.149441C0.470739 10.147 1.97262 11.3127 3.94524 11.3127ZM4.01249 5.84314C2.77213 5.84314 1.89043 4.96144 1.89043 3.72855C1.89043 2.52555 2.81696 1.60649 4.01996 1.60649C5.22296 1.60649 6.14949 2.5405 6.14949 3.75844C6.14949 4.96144 5.24538 5.84314 4.01249 5.84314Z" fill="black"/>
<path d="M11.4699 11.2081C12.1797 11.2081 12.6654 10.7 12.6654 10.0275C12.6654 9.34753 12.1797 8.8469 11.4699 8.8469C10.7675 8.8469 10.2744 9.34753 10.2744 10.0275C10.2744 10.7 10.7675 11.2081 11.4699 11.2081ZM11.4699 5.60403C12.1797 5.60403 12.6654 5.10341 12.6654 4.43092C12.6654 3.75097 12.1797 3.25034 11.4699 3.25034C10.7675 3.25034 10.2744 3.75097 10.2744 4.43092C10.2744 5.10341 10.7675 5.60403 11.4699 5.60403Z" fill="black"/>
<path d="M19.6595 11.0512H21.5051V9.04117H22.9622V7.41227H21.5051V0.268994H18.7853C16.8799 3.13826 15.3631 5.53678 14.3918 7.3226V9.04117H19.6595V11.0512ZM16.1776 7.34502C17.4329 5.13329 18.5537 3.36242 19.5848 1.83812H19.6894V7.4571H16.1776V7.34502Z" fill="black"/>
<path d="M27.0721 11.0512H28.9999V0.268994H27.0796L24.2626 2.24161V4.09468L26.9451 2.21173H27.0721V11.0512Z" fill="black"/>
</svg>
